<svg xmlns="http://www.w3.org/2000/svg" viewBox="0 0 256 256" fill="none">
  <path
    d="M3 128C3 94.8479 16.1696 63.0537 39.6117 39.6116C63.0537 16.1696 94.8479 3 128 3C161.152 3 192.946 16.1696 216.388 39.6116C239.83 63.0537 253 94.8479 253 128C253 161.152 239.83 192.946 216.388 216.388C192.946 239.83 161.152 253 128 253C94.8479 253 63.0537 239.83 39.6117 216.388C16.1696 192.946 3 161.152 3 128ZM128 229.562C154.936 229.562 180.769 218.862 199.816 199.816C218.862 180.769 229.562 154.936 229.562 128C229.562 101.064 218.862 75.2311 199.816 56.1845C180.769 37.1378 154.936 26.4375 128 26.4375C101.064 26.4375 75.2311 37.1378 56.1845 56.1845C37.1378 75.2311 26.4375 101.064 26.4375 128C26.4375 154.936 37.1378 180.769 56.1845 199.816C75.2311 218.862 101.064 229.562 128 229.562ZM84.6719 153.328L124.656 86.7031C125.004 86.1274 125.495 85.6511 126.08 85.3206C126.666 84.99 127.327 84.8163 128 84.8163C128.673 84.8163 129.334 84.99 129.92 85.3206C130.505 85.6511 130.996 86.1274 131.344 86.7031L171.328 153.328C171.685 153.921 171.878 154.597 171.888 155.289C171.898 155.98 171.724 156.662 171.384 157.264C171.043 157.867 170.55 158.368 169.952 158.717C169.355 159.066 168.676 159.25 167.984 159.25H88.0312C87.3383 159.252 86.6572 159.07 86.0577 158.723C85.4583 158.375 84.9622 157.874 84.6203 157.271C84.2784 156.668 84.1029 155.986 84.112 155.293C84.1211 154.6 84.3143 153.922 84.6719 153.328Z"
    fill="#4493F8"
  />
  <path
    fill-rule="evenodd"
    clip-rule="evenodd"
    d="M128 229.562C154.936 229.562 180.769 218.862 199.816 199.816C218.862 180.769 229.562 154.936 229.562 128C229.562 101.064 218.862 75.2311 199.816 56.1845C180.769 37.1378 154.936 26.4375 128 26.4375C101.064 26.4375 75.2311 37.1378 56.1845 56.1845C37.1378 75.2311 26.4375 101.064 26.4375 128C26.4375 154.936 37.1378 180.769 56.1845 199.816C75.2311 218.862 101.064 229.562 128 229.562ZM124.656 86.7031L84.6719 153.328C84.3143 153.922 84.1211 154.6 84.112 155.293C84.1029 155.986 84.2784 156.668 84.6203 157.271C84.9622 157.874 85.4583 158.375 86.0577 158.723C86.6572 159.07 87.3383 159.252 88.0312 159.25H167.984C168.676 159.25 169.355 159.066 169.952 158.717C170.55 158.368 171.043 157.867 171.384 157.264C171.724 156.662 171.898 155.98 171.888 155.289C171.878 154.597 171.685 153.921 171.328 153.328L131.344 86.7031C130.996 86.1274 130.505 85.6511 129.92 85.3206C129.334 84.99 128.673 84.8163 128 84.8163C127.327 84.8163 126.666 84.99 126.08 85.3206C125.495 85.6511 125.004 86.1274 124.656 86.7031Z"
    fill="white"
  />
</svg>
